Transformers 3 Dark of the Moon 2011 CamRip XviD-P2P
[English Audio!]

++++++++++++++++++++++++++++++++++++++++++++++++++++

General

Format : AVI
Format/Info : Audio Video Interleave
File size : 1.37 GiB
Duration : 2h 25mn
Language :English
Overall bit rate : 1 346 Kbps
Writing application : VirtualDubMod 1.5.4.1 (build 2178/release)
Writing library : VirtualDub build 32817/release

Video
ID : 0
Format : MPEG-4 Visual
Format profile : Advanced Simple@L5
Format settings, BVOP : 2
Format settings, QPel : No
Format settings, GMC : No warppoints
Format settings, Matrix : Custom
Codec ID : XVID
Codec ID/Hint : XviD
Duration : 2h 25mn
Bit rate : 1 208 Kbps
Width : 720 pixels
Height : 352 pixels
Display aspect ratio : 2.045
Frame rate : 25.000 fps
Color space : YUV
Chroma subsampling : 4:2:0
Bit depth : 8 bits
Scan type : Progressive
Compression mode : Lossy
Bits/(Pixel*Frame) : 0.191
Stream size : 1.23 GiB (90%)
Writing library : XviD 58

Audio
ID : 1
Format : MPEG Audio
Format version : Version 1
Format profile : Layer 3
Codec ID : 55
Codec ID/Hint : MP3
Duration : 2h 25mn
Bit rate mode : Constant
Bit rate : 128 Kbps
Channel(s) : 2 channels
Sampling rate : 44.1 KHz
Compression mode : Lossy
Delay relative to video : 6s 22ms
Stream size : 133 MiB (10%)
Alignment : Split accross interleaves
Interleave, duration : 40 ms (1.00 video frame)
Interleave, preload duration : 500 ms

Video - Transformers 3 Dark of the Moon 2011 RUS CAMRip XviD Relizlab - Spanks Guys.
Audio - A New Good Friend

Work done - Not much on the video at all to be honest, Synced it up with some proper HQ 69:1 cam audio, which i have to say is very very good for a cam,Mic.
There might be the odd spot that is out, but as a recent rls said - FU its free :p
This will do until some1 comes along with a Super Duper 1080p HQ 109:1 Line Studio quality Audio.
And yes, we take the piss!
But on a good note, this might work on a ps3- not that we give a :~love~: if it does or it doesnt! - Xbox FTW.

Screens:
 
http://leetleech.org/images/02401198320072697568.png
 
http://leetleech.org/images/20202030142932416467.png
 
http://leetleech.org/images/60849492765008894389.png